arm26_states
nRows=20
nColumns=17

# SIMM Motion File Header:
name arm26_states
datacolumns 17
datarows 20
otherdata 1
range 0.22675454999999983000 0.25690110999999960000
endheader
time	r_shoulder_elev	r_elbow_flex	r_shoulder_elev_u	r_elbow_flex_u	TRIlong.activation	TRIlong.fiber_length	TRIlat.activation	TRIlat.fiber_length	TRImed.activation	TRImed.fiber_length	BIClong.activation	BIClong.fiber_length	BICshort.activation	BICshort.fiber_length	BRA.activation	BRA.fiber_length
      0.22675454999999983000	     -8.92647098691165120000	     44.65357665607405100000	    -46.93740309491126100000	    290.95796547254116000000	      0.01001431992029304200	      0.14838280107892354000	      0.01716982371879469500	      0.08799247123257103500	      0.01650909719655740600	      0.08303646710274129000	      0.18763206945322214000	      0.13453597077291005000	      0.02709129448923769400	      0.13289816132656718000	      0.01016115649342584500	      0.08304634760443464800
      0.22806526999999982000	     -8.98762332947669410000	     45.03414100642526600000	    -46.37324751647739900000	    289.73425798868249000000	      0.01001427594315661000	      0.14849283259607995000	      0.01730616744233884700	      0.08814167486428022000	      0.01663910717557329600	      0.08318281467040566900	      0.18802296616940911000	      0.13434020165969057000	      0.02711594341987236600	      0.13269594573971816000	      0.01015874256679492500	      0.08296472728783253800
      0.23068670999999982000	     -9.10773536321646130000	     45.79050615584049000000	    -45.34578745665262300000	    287.56942805538108000000	      0.01001418677902258900	      0.14870885392766256000	      0.01758344274166249000	      0.08840092336114995000	      0.01689999817447439300	      0.08347598510562134800	      0.18881300616906757000	      0.13394661424437343000	      0.02716226312223881500	      0.13229026670854524000	      0.01015483334412156700	      0.08280137892891197000
      0.23199742999999981000	     -9.16678734168656280000	     46.16656726501539500000	    -44.76855448527067700000	    286.27731939924132000000	      0.01001414161788410200	      0.14881900039601806000	      0.01772400680095210700	      0.08856651573490509400	      0.01703080942417986600	      0.08361756938470156500	      0.18921148885754968000	      0.13374882447770856000	      0.02718417246996774100	      0.13208675074432849000	      0.01015331841316006300	      0.08271902487588163300
      0.23330814999999980000	     -9.22508501505025440000	     46.54093593558972900000	    -44.18791329086535300000	    284.96619049335931000000	      0.01001409608724613100	      0.14892732325056449000	      0.01786564705540801700	      0.08871290857656523300	      0.01716182499946639800	      0.08376196602665794700	      0.18961190598577360000	      0.13355040901120385000	      0.02720538321757509300	      0.13188283468695702000	      0.01015208403782884500	      0.08263633655015957500
      0.23461886999999979000	     -9.28262066017770420000	     46.91357678238637200000	    -43.60537651283184600000	    283.63965491986369000000	      0.01001405027290668000	      0.14903482348613281000	      0.01800815619796369800	      0.08885732166106431700	      0.01729299660471175100	      0.08390423608513815400	      0.19001271357839422000	      0.13335141256196151000	      0.02722596897077105700	      0.13167857119203930000	      0.01015105967644848300	      0.08255330424180562500
      0.23592958999999977000	     -9.33939146371015030000	     47.28446843566548100000	    -43.02053282633023200000	    282.29609143708882000000	      0.01001400426190765900	      0.14914205727545524000	      0.01815135082249290400	      0.08900041211214973500	      0.01742428139359536400	      0.08404599399772678900	      0.19041253009458639000	      0.13315187932898306000	      0.02724599403848831600	      0.13147400333273912000	      0.01015017372396694000	      0.08246993757919131300
      0.23724030999999976000	     -9.39539459720083240000	     47.65358916807760900000	    -42.43383050297691700000	    280.93690759298624000000	      0.01001395806092112200	      0.14924877216540086000	      0.01829514640388143000	      0.08914229136318281600	      0.01755566536418526700	      0.08418669285523242000	      0.19081147177335273000	      0.13295185053731443000	      0.02726552724685908600	      0.13126916783255799000	      0.01014942144188042200	      0.08238625137931285300
      0.23855102999999975000	     -9.45062771784562900000	     48.02091871005141100000	    -41.84544956143030700000	    279.56250896309865000000	      0.01001391167607168300	      0.14935507251495150000	      0.01843946911732184000	      0.08928302741589133600	      0.01768713633246149800	      0.08432651707887174600	      0.19120964608447827000	      0.13275136453354611000	      0.02728462901855927000	      0.13106409778280695000	      0.01014879852106371900	      0.08230226200782001000
      0.23986174999999973000	     -9.50508877567259700000	     48.38643752966985500000	    -41.25566859013694900000	    278.17368245603484000000	      0.01001386511328652500	      0.14946090281989677000	      0.01858425420704733900	      0.08942266403308324300	      0.01781868361115534700	      0.08446538914641128800	      0.19160714729557551000	      0.13255045738991039000	      0.02730335235361480700	      0.13085882398526633000	      0.01014830079130465600	      0.08221798611377143000
      0.24117246999999972000	     -9.55877607750569780000	     48.75012708624090200000	    -40.66472991226920200000	    276.77106775961170000000	      0.01001381837830175000	      0.14956628102105068000	      0.01872944487224156200	      0.08956123098173142400	      0.01795029782588028500	      0.08460333075533159300	      0.19200405809391094000	      0.13234916340168590000	      0.02732174374124033200	      0.13065337581358899000	      0.01014792421682596600	      0.08213344034324622500
      0.24379390999999973000	     -9.66386166610761070000	     49.47206437582790500000	    -39.61592517758555900000	    274.34661418861282000000	      0.01001372461614155100	      0.14977625832381058000	      0.01902034537419076300	      0.08978486894040366200	      0.01821323507717942000	      0.08487699678738648600	      0.19279114842507272000	      0.13194555930827867000	      0.02735643173782451400	      0.13024210501182132000	      0.01014748328236889800	      0.08196378978688743900
      0.24510462999999971000	     -9.71538741891843750000	     49.83068013515863700000	    -39.02718497526534900000	    272.92126770590147000000	      0.01001367771397461200	      0.14987934411825932000	      0.01916572649112397200	      0.08997911122040025400	      0.01834431949851459500	      0.08501129059020255700	      0.19317888314620690000	      0.13174326515700979000	      0.02737218045625063000	      0.13003621981340885000	      0.01014739126730636500	      0.08187833736578133100
      0.24641534999999970000	     -9.76615268404897920000	     50.18745509421981400000	    -38.43377617321314000000	    271.47008445446926000000	      0.01001363080265973500	      0.14998338793565863000	      0.01931105895779003700	      0.09011513743458049500	      0.01847518013385222200	      0.08514612944691699000	      0.19356326763927570000	      0.13154066774299902000	      0.02738701297511473400	      0.12983019871143198000	      0.01014739944983783200	      0.08179272071311093100
      0.24772606999999969000	     -9.81614039293581260000	     50.54232176214649300000	    -37.84097077558316600000	    270.01032594786039000000	      0.01001358388249181700	      0.15008632750006171000	      0.01945634875065224000	      0.09025055952782862200	      0.01860584447428075300	      0.08527935082587005700	      0.19394471346450673000	      0.13133780740717779000	      0.02740104184535154700	      0.12962409709867248000	      0.01014765782107456200	      0.08170692536761672800
      0.24903678999999967000	     -9.86535146540972010000	     50.89526907964772600000	    -37.24895974156706300000	    268.54205360649985000000	      0.01001353695375625400	      0.15018904093413146000	      0.01960160111199262300	      0.09038472795652102700	      0.01873633663373390100	      0.08541189956074320100	      0.19432358162383198000	      0.13113472242656921000	      0.02741436579152713900	      0.12941795994436306000	      0.01014818258987329800	      0.08162095723675319400
      0.25165822999999965000	     -9.96144965316587340000	     51.59536679986388900000	    -36.06688310231478300000	    265.57880072916498000000	      0.01001344317894490300	      0.15039291409645103000	      0.01989146405798912500	      0.09064781416816393400	      0.01899654017564318700	      0.08567398729273442700	      0.19507121670819907000	      0.13072801801934711000	      0.02743893307820165900	      0.12900572745133398000	      0.01014964110960796900	      0.08144868816747528900
      0.25427966999999962000	    -10.05445109548379000000	     52.28764447595146700000	    -34.89647950455402300000	    262.60894586022590000000	      0.01001334994027239600	      0.15059254734052097000	      0.02017860058242909900	      0.09088372662288361800	      0.01925461624186359400	      0.08593151340163127100	      0.19579461556346750000	      0.13032087062086795000	      0.02746014243493902900	      0.12859373194473300000	      0.01015055905995367200	      0.08127573010919340900
      0.25559038999999961000	    -10.09980237472462300000	     52.63085271501589800000	    -34.30605040233011500000	    261.08894644093800000000	      0.01001330352061083200	      0.15069423373729929000	      0.02032130745506508000	      0.09101319454089318300	      0.01938298824962033200	      0.08605995059787116500	      0.19614875401795839000	      0.13011722425470781000	      0.02746971445547754400	      0.12838788917359811000	      0.01015083550227465300	      0.08118904160877180000
      0.25690110999999960000	    -10.14438135087717900000	     52.97206659963772100000	    -33.71766728433659200000	    259.56506150634186000000	      0.01001325722835988200	      0.15079455493409094000	      0.02046353310554948500	      0.09114081217922472000	      0.01951098817665917300	      0.08618655027082648700	      0.19649866849200801000	      0.12991353963137228000	      0.02747870957662677800	      0.12818218310673349000	      0.01015100997174524100	      0.08110231248386472200
